<?xml version="1.0" standalone="no"?>
<!DOCTYPE svg PUBLIC "-//W3C//DTD SVG 20010904//EN"
 "http://www.w3.org/TR/2001/REC-SVG-20010904/DTD/svg10.dtd">
<svg version="1.0" xmlns="http://www.w3.org/2000/svg"
 width="256.000000pt" height="218.000000pt" viewBox="0 0 256.000000 218.000000"
 preserveAspectRatio="xMidYMid meet">
<metadata>
Created by potrace 1.16, written by Peter Selinger 2001-2019
</metadata>
<g transform="translate(0.000000,218.000000) scale(0.100000,-0.100000)"
fill="#000000" stroke="none">
<path d="M0 1090 l0 -1090 1280 0 1280 0 0 1090 0 1090 -1280 0 -1280 0 0
-1090z m1314 804 c3 -9 6 -134 6 -279 l0 -263 -116 -204 c-64 -111 -122 -208
-128 -215 -8 -9 -10 115 -6 480 3 271 7 493 8 495 1 1 53 2 116 2 95 0 115 -3
120 -16z m655 -268 c10 -11 0 -60 -44 -228 -93 -357 -183 -705 -222 -857 -20
-78 -43 -150 -51 -158 -12 -12 -43 -14 -163 -11 -81 2 -151 6 -155 11 -4 4
-43 143 -86 309 l-77 302 146 255 c80 141 148 258 151 261 11 11 -14 -52 -60
-156 l-49 -111 56 -269 c70 -330 74 -349 84 -338 5 5 18 56 29 114 75 374 183
864 193 876 17 20 232 20 248 0z m-1248 -571 c3 -71 11 -140 17 -151 6 -12 26
-27 43 -33 48 -16 208 -14 242 4 16 8 27 11 25 7 -11 -27 -242 -422 -244 -419
-2 2 12 40 31 84 19 45 35 85 35 91 0 5 -39 12 -87 14 -152 8 -254 75 -288
191 -16 53 -22 327 -8 341 4 3 57 5 117 4 l111 -3 6 -130z"/>
</g>
</svg>
